{
  "source": "C:\\Users\\Peter\\Desktop\\stuff\\MIUN\\quantitative_research\\video_compression\\videos\\BVI-HD\\BVI-HD_CDVL_videos\\ORIG\\PlasmaAveragePan_1920x1080_60fps.mp4",
  "output": "C:\\Users\\Peter\\Desktop\\stuff\\MIUN\\quantitative_research\\video_compression\\compressed_videos\\BVI-HD\\h264\\3\\PlasmaAveragePan_1920x1080_60fps_h264.mp4",
  "codec": "h264",
  "ok": "Input #0, mov,mp4,m4a,3gp,3g2,mj2, from 'C:\\Users\\Peter\\Desktop\\stuff\\MIUN\\quantitative_research\\video_compression\\videos\\BVI-HD\\BVI-HD_CDVL_videos\\ORIG\\PlasmaAveragePan_1920x1080_60fps.mp4':\n  Metadata:\n    major_brand     : isom\n    minor_version   : 512\n    compatible_brands: isomiso2avc1mp41\n    encoder         : Lavf54.28.101\n  Duration: 00:00:05.00, start: 0.000000, bitrate: 73730 kb/s\n  Stream #0:0[0x1](und): Video: h264 (High 4:4:4 Predictive) (avc1 / 0x31637661), yuv420p(progressive), 1920x1080, 73727 kb/s, 60 fps, 60 tbr, 60 tbn (default)\n    Metadata:\n      handler_name    : VideoHandler\n      vendor_id       : [0][0][0][0]\n[out#0/mp4 @ 00000179d849a600] Codec AVOption b:a (set bitrate (in bits/s)) has not been used for any stream. The most likely reason is either wrong type (e.g. a video option with no video streams) or that it is a private option of some decoder which was not actually used for any stream.\nStream mapping:\n  Stream #0:0 -> #0:0 (h264 (native) -> h264 (libx264))\nPress [q] to stop, [?] for help\n[libx264 @ 00000179d8d90280] using cpu capabilities: MMX2 SSE2Fast SSSE3 SSE4.2 AVX FMA3 BMI2 AVX2\n[libx264 @ 00000179d8d90280] profile High, level 5.0, 4:2:0, 8-bit\n[libx264 @ 00000179d8d90280] 264 - core 165 r3222 b35605a - H.264/MPEG-4 AVC codec - Copyleft 2003-2025 - http://www.videolan.org/x264.html - options: cabac=1 ref=5 deblock=1:0:0 analyse=0x3:0x113 me=hex subme=8 psy=1 psy_rd=1.00:0.00 mixed_ref=1 me_range=16 chroma_me=1 trellis=2 8x8dct=1 cqm=0 deadzone=21,11 fast_pskip=1 chroma_qp_offset=-2 threads=18 lookahead_threads=3 sliced_threads=0 nr=0 decimate=1 interlaced=0 bluray_compat=0 constrained_intra=0 bframes=3 b_pyramid=2 b_adapt=1 b_bias=0 direct=3 weightb=1 open_gop=0 weightp=2 keyint=250 keyint_min=25 scenecut=40 intra_refresh=0 rc_lookahead=50 rc=cbr mbtree=1 bitrate=3000 ratetol=1.0 qcomp=0.60 qpmin=0 qpmax=69 qpstep=4 vbv_maxrate=3000 vbv_bufsize=3000 nal_hrd=none filler=0 ip_ratio=1.40 aq=1:1.00\nOutput #0, mp4, to 'C:\\Users\\Peter\\Desktop\\stuff\\MIUN\\quantitative_research\\video_compression\\compressed_videos\\BVI-HD\\h264\\3\\PlasmaAveragePan_1920x1080_60fps_h264.mp4':\n  Metadata:\n    major_brand     : isom\n    minor_version   : 512\n    compatible_brands: isomiso2avc1mp41\n    encoder         : Lavf62.3.100\n  Stream #0:0(und): Video: h264 (avc1 / 0x31637661), yuv420p(tv, progressive), 1920x1080, q=2-31, 3000 kb/s, 60 fps, 15360 tbn (default)\n    Metadata:\n      encoder         : Lavc62.11.100 libx264\n      handler_name    : VideoHandler\n      vendor_id       : [0][0][0][0]\n    Side data:\n      cpb: bitrate max/min/avg: 3000000/0/3000000 buffer size: 3000000 vbv_delay: N/A\nframe=    0 fps=0.0 q=0.0 size=       0KiB time=N/A bitrate=N/A speed=N/A elapsed=0:00:00.51    \nframe=   24 fps= 22 q=34.0 size=       0KiB time=00:00:00.30 bitrate=   1.3kbits/s speed=0.28x elapsed=0:00:01.07    \nframe=   72 fps= 44 q=34.0 size=     256KiB time=00:00:01.15 bitrate=1823.9kbits/s speed=0.695x elapsed=0:00:01.65    \nframe=  110 fps= 50 q=34.0 size=     512KiB time=00:00:01.80 bitrate=2330.4kbits/s speed=0.818x elapsed=0:00:02.20    \nframe=  155 fps= 57 q=35.0 size=     768KiB time=00:00:02.48 bitrate=2533.6kbits/s speed=0.91x elapsed=0:00:02.72    \nframe=  203 fps= 62 q=33.0 size=    1024KiB time=00:00:03.28 bitrate=2555.0kbits/s speed=   1x elapsed=0:00:03.27    \nframe=  256 fps= 67 q=33.0 size=    1280KiB time=00:00:04.16 bitrate=2516.7kbits/s speed=1.08x elapsed=0:00:03.84    \n[mp4 @ 00000179d849a700] Starting second pass: moving the moov atom to the beginning of the file\n[out#0/mp4 @ 00000179d849a600] video:1771KiB audio:0KiB subtitle:0KiB other streams:0KiB global headers:0KiB muxing overhead: 0.246710%\nframe=  300 fps= 71 q=-1.0 Lsize=    1776KiB time=00:00:04.96 bitrate=2928.9kbits/s speed=1.18x elapsed=0:00:04.20    \n[libx264 @ 00000179d8d90280] frame I:3     Avg QP:19.58  size: 14606\n[libx264 @ 00000179d8d90280] frame P:75    Avg QP:30.08  size:  8600\n[libx264 @ 00000179d8d90280] frame B:222   Avg QP:31.94  size:  5064\n[libx264 @ 00000179d8d90280] consecutive B-frames:  1.0%  0.7%  1.0% 97.3%\n[libx264 @ 00000179d8d90280] mb I  I16..4: 38.3% 60.9%  0.8%\n[libx264 @ 00000179d8d90280] mb P  I16..4:  1.0%  8.4%  0.2%  P16..4:  5.9%  1.4%  0.4%  0.0%  0.0%    skip:82.7%\n[libx264 @ 00000179d8d90280] mb B  I16..4:  0.3%  1.1%  0.0%  B16..8: 10.4%  2.5%  0.2%  direct: 0.6%  skip:84.9%  L0:50.0% L1:44.0% BI: 6.0%\n[libx264 @ 00000179d8d90280] 8x8 transform intra:80.1% inter:98.4%\n[libx264 @ 00000179d8d90280] direct mvs  spatial:95.5% temporal:4.5%\n[libx264 @ 00000179d8d90280] coded y,uvDC,uvAC intra: 28.6% 61.7% 46.3% inter: 2.2% 6.1% 0.6%\n[libx264 @ 00000179d8d90280] i16 v,h,dc,p: 67% 15%  5% 13%\n[libx264 @ 00000179d8d90280] i8 v,h,dc,ddl,ddr,vr,hd,vl,hu: 18% 11% 28%  6%  8%  8%  9%  6%  7%\n[libx264 @ 00000179d8d90280] i4 v,h,dc,ddl,ddr,vr,hd,vl,hu: 10% 17%  9%  6% 17% 11% 17%  5%  8%\n[libx264 @ 00000179d8d90280] i8c dc,h,v,p: 59% 16% 15% 10%\n[libx264 @ 00000179d8d90280] Weighted P-Frames: Y:1.3% UV:1.3%\n[libx264 @ 00000179d8d90280] ref P L0: 49.9%  3.2% 21.0% 14.0% 11.8%  0.2%\n[libx264 @ 00000179d8d90280] ref B L0: 76.6% 14.1%  6.8%  2.4%\n[libx264 @ 00000179d8d90280] ref B L1: 94.6%  5.4%\n[libx264 @ 00000179d8d90280] kb/s:2900.97\n",
  "seconds": 4.426599979400635,
  "probe_out": {}
}